<svg xmlns="http://www.w3.org/2000/svg" width="167" height="36" viewBox="0 0 167 36" fill="none"><path d="M63.8852 20.3558C63.8852 23.4083 60.9551 24.5558 56.0893 24.5558C54.1916 24.5558 51.8004 24.4583 49.5839 24.1733C49.4245 24.1508 49.303 24.0158 49.303 23.8508V22.7558C49.303 21.8108 50.1228 21.0683 51.0717 21.1508C52.9163 21.3158 54.5256 21.3908 56.0437 21.3908C58.2603 21.3908 60.0897 21.1808 60.0897 19.7708V18.8558C60.0897 17.8883 59.6646 17.8133 57.524 17.2883L52.9239 16.1933C50.7301 15.6683 49.2499 14.7308 49.2499 12.1208V10.4258C49.2499 7.34325 52.476 6.22575 57.152 6.22575C59.2395 6.22575 61.0537 6.32325 63.4297 6.72825C63.5891 6.75825 63.703 6.89325 63.703 7.05075V8.02575C63.703 8.98575 62.8604 9.72075 61.8963 9.62325C60.2112 9.45075 58.8372 9.39075 57.2507 9.39075C54.8216 9.39075 53.0453 9.57075 53.0453 10.9808V11.6858C53.0453 12.7058 53.683 12.9383 56.2183 13.5683L60.2339 14.5358C62.534 15.1058 63.8776 15.8183 63.8776 18.4508V20.3558H63.8852Z" fill="#2E3C50"></path><path d="M95.0382 15.9908C95.0382 13.8758 93.5352 13.5908 91.4174 13.5908C88.9883 13.5908 88.1381 13.9808 87.4246 15.4433V22.7633C87.4246 23.6558 86.6958 24.3758 85.7925 24.3758H83.9707C83.7885 24.3758 83.6443 24.2333 83.6443 24.0533V12.2783C83.6443 11.3933 84.373 10.6658 85.2763 10.6658H86.7186C86.8856 10.6658 87.0222 10.7858 87.045 10.9508L87.25 12.6233H87.4094C88.047 10.9808 90.1345 10.4033 93.0115 10.4033C96.3439 10.4033 98.8261 11.3933 98.8261 14.2658V22.7633C98.8261 23.6558 98.0974 24.3758 97.194 24.3758H95.3722C95.1901 24.3758 95.0458 24.2333 95.0458 24.0533V15.9908H95.0382Z" fill="#2E3C50"></path><path d="M107.996 18.2783L107.176 18.3458C106.334 18.4133 105.688 19.1108 105.688 19.9508V22.7633C105.688 23.6483 104.96 24.3758 104.056 24.3758H102.234C102.052 24.3758 101.908 24.2333 101.908 24.0533V7.13326C101.908 6.24826 102.637 5.52826 103.54 5.52826H105.362C105.544 5.52826 105.688 5.67076 105.688 5.85076V14.9408C105.688 15.1283 105.855 15.2783 106.045 15.2633L108.474 15.0383C108.672 15.0233 108.854 14.9333 108.99 14.7908L112.475 11.1758C112.786 10.8608 113.211 10.6733 113.651 10.6733H116.407C116.695 10.6733 116.839 11.0108 116.642 11.2133L111.526 16.5983L117.097 23.8583C117.257 24.0683 117.105 24.3758 116.839 24.3758H114.091C113.59 24.3758 113.12 24.1508 112.809 23.7608L108.709 18.5858C108.535 18.3683 108.269 18.2558 107.996 18.2783Z" fill="#2E3C50"></path><path d="M130.465 15.9908C130.465 13.8758 129.008 13.5908 126.844 13.5908C124.415 13.5908 123.565 13.9808 122.851 15.4433V22.7633C122.851 23.6558 122.123 24.3758 121.219 24.3758H119.397C119.215 24.3758 119.071 24.2333 119.071 24.0533V7.13325C119.071 6.24075 119.8 5.52075 120.703 5.52075H122.525C122.707 5.52075 122.851 5.66325 122.851 5.84325V10.4033L122.669 12.6233H122.829C123.466 10.9808 125.554 10.4033 128.431 10.4033C131.763 10.4033 134.245 11.3933 134.245 14.2658V22.7633C134.245 23.6558 133.517 24.3758 132.613 24.3758H130.791C130.609 24.3758 130.465 24.2333 130.465 24.0533V15.9908Z" fill="#2E3C50"></path><path d="M141.305 25.1032L135.498 11.1157C135.407 10.9057 135.566 10.6732 135.801 10.6732H138.147C138.815 10.6732 139.415 11.0782 139.665 11.6932L143.37 20.9857L146.945 11.7082C147.188 11.0857 147.787 10.6732 148.471 10.6732H150.763C150.991 10.6732 151.15 10.8982 151.067 11.1082L144.22 28.7782C143.977 29.4007 143.377 29.8132 142.702 29.8132H140.432C140.204 29.8132 140.045 29.5882 140.128 29.3782L141.32 26.2957C141.464 25.9057 141.464 25.4782 141.305 25.1032Z" fill="#2E3C50"></path><path d="M163.167 22.3658H163.007C162.423 23.9333 160.335 24.5558 157.511 24.5558C154.263 24.5558 151.78 23.5133 151.78 20.6633C151.78 17.1233 153.708 16.3583 157.534 16.2533C159.675 16.1933 160.715 16.3058 163.015 16.5083V15.5183C163.015 14.2133 161.876 13.4558 158.149 13.4558C156.805 13.4558 155.204 13.5458 153.283 13.7783C153.086 13.8008 152.911 13.6508 152.911 13.4633V12.2783C152.911 11.4683 153.526 10.7783 154.346 10.6808C156.107 10.4708 157.701 10.4108 159.31 10.4108C164.229 10.4108 166.788 11.5358 166.788 14.7158V22.7633C166.788 23.6558 166.059 24.3758 165.155 24.3758H163.69C163.523 24.3758 163.387 24.2558 163.364 24.0908L163.167 22.3658ZM163.007 18.8933C161.762 18.7358 160.335 18.6083 159.31 18.6083C156.935 18.6083 155.583 18.8183 155.583 20.2283C155.583 21.5333 157.117 21.7133 158.969 21.7133C161.087 21.7133 162.218 21.2933 163.015 20.2508V18.8933H163.007Z" fill="#2E3C50"></path><path d="M77.0478 22.3658H76.8884C76.3039 23.9333 74.2164 24.5558 71.3926 24.5558C68.1436 24.5558 65.6614 23.5133 65.6614 20.6633C65.6614 17.1233 67.5895 16.3583 71.4153 16.2533C73.556 16.1933 74.5959 16.3058 76.896 16.5083V15.5183C76.896 14.2133 75.7573 13.4558 72.0302 13.4558C70.6866 13.4558 69.0849 13.5458 67.1644 13.7783C66.9671 13.8008 66.7925 13.6508 66.7925 13.4633V12.2783C66.7925 11.4683 67.4073 10.7783 68.2271 10.6808C69.9882 10.4708 71.5823 10.4108 73.1916 10.4108C78.1105 10.4108 80.6686 11.5358 80.6686 14.7158V22.7633C80.6686 23.6558 79.9399 24.3758 79.0366 24.3758H77.5716C77.4046 24.3758 77.2679 24.2558 77.2451 24.0908L77.0478 22.3658ZM76.8884 18.8933C75.6435 18.7358 74.2164 18.6083 73.1916 18.6083C70.8156 18.6083 69.4645 18.8183 69.4645 20.2283C69.4645 21.5333 70.9978 21.7133 72.85 21.7133C74.9679 21.7133 76.0989 21.2933 76.896 20.2508V18.8933H76.8884Z" fill="#2E3C50"></path><path d="M6.34894 27.2034L12.9668 20.6634C13.5891 20.0484 13.9382 19.2159 13.9382 18.3459V13.2009C13.9382 10.8084 14.9021 8.51336 16.6097 6.81836L19.2507 4.20087C19.4784 3.97587 19.2735 3.58588 18.9547 3.64588C18.1503 3.78838 17.3458 3.96835 16.5338 4.17835C5.59001 7.07335 -1.63499 15.4659 0.38376 22.9134C0.81635 24.5184 1.65117 25.9509 2.79715 27.1734C3.74581 28.1859 5.36992 28.1784 6.34894 27.2034Z" fill="#66CB66"></path><path d="M34.0499 8.13083L28.836 13.2833C28.2137 13.8983 27.8646 14.7308 27.8646 15.6008V20.7458C27.8646 23.1383 26.9007 25.4333 25.1932 27.1283L21.1481 31.1333C20.9204 31.3583 21.1253 31.7484 21.444 31.6884C22.2485 31.5459 23.053 31.3658 23.865 31.1558C34.8088 28.2608 42.0338 19.8684 40.015 12.4209C39.5824 10.8159 38.7476 9.38331 37.6092 8.16081C36.653 7.14831 35.0289 7.15583 34.0499 8.13083Z" fill="#66CB66"></path><path d="M28.4186 0.953393L19.5543 9.71339C18.6208 10.6359 18.0972 11.8884 18.0972 13.1934V20.3784C18.0972 21.0309 17.8315 21.6609 17.3686 22.1184L5.71145 33.6384C5.54448 33.8034 5.59761 34.0809 5.81011 34.1709C6.71323 34.5684 7.66948 34.9059 8.67127 35.1984C9.84761 35.5359 11.1226 35.2359 11.9878 34.3809L22.2561 24.2334C23.1896 23.3109 23.7132 22.0584 23.7132 20.7534V13.5684C23.7132 12.9159 23.9789 12.2859 24.4418 11.8284L34.6949 1.69589C34.8619 1.53089 34.8088 1.25341 34.5963 1.16341C33.6931 0.765915 32.7369 0.428425 31.7351 0.143425C30.5588 -0.209075 29.2838 0.0983925 28.4186 0.953393Z" fill="#66CB66"></path></svg>